<svg viewBox="0 0 108 61" version="1.1" xmlns="http://www.w3.org/2000/svg" xmlns:xlink="http://www.w3.org/1999/xlink">
    <path d="M0,60.9632677 L40.9632677,0 L59.2206811,18.2574134 L72.8066154,4.67147914 L107.99634,59.8612042 L0,60.9632677 Z M42.16,43.26 L45.68,43.26 C47.6933434,43.26 49.4366593,43.0166691 50.91,42.53 C52.3833407,42.0433309 53.5999952,41.366671 54.56,40.5 C55.5200048,39.633329 56.233331,38.5933394 56.7,37.38 C57.166669,36.1666606 57.4,34.8333406 57.4,33.38 C57.4,32.0333266 57.1733356,30.7800058 56.72,29.62 C56.2666644,28.4599942 55.5633381,27.4533376 54.61,26.6 C53.6566619,25.7466624 52.4433407,25.0766691 50.97,24.59 C49.4966593,24.1033309 47.7333436,23.86 45.68,23.86 L35.4,23.86 L35.4,53 L42.16,53 L42.16,43.26 Z M70.68,47.6 L70.68,23.86 L63.92,23.86 L63.92,53 L81.48,53 L81.48,47.6 L70.68,47.6 Z" id="Combined-Shape"></path>
    <path d="M42.16,38.16 L45.68,38.16 C47.4400088,38.16 48.7066628,37.7400042 49.48,36.9 C50.2533372,36.0599958 50.64,34.8866742 50.64,33.38 C50.64,32.71333 50.540001,32.1066694 50.34,31.56 C50.139999,31.0133306 49.8366687,30.5433353 49.43,30.15 C49.0233313,29.7566647 48.5100031,29.4533344 47.89,29.24 C47.2699969,29.0266656 46.5333376,28.92 45.68,28.92 L42.16,28.92 L42.16,38.16 Z" id="Path"></path>
</svg>