<?xml version="1.0" encoding="UTF-8" standalone="no"?>
<svg viewBox="0 0 388 207" class="svg-mountains" preserveAspectRatio="none" version="1.1" xmlns="http://www.w3.org/2000/svg" xmlns:xlink="http://www.w3.org/1999/xlink">
  <path d="M102.628906,204 L168.361565,123.69877 L168.430569,121.428571 L234.457246,185.769358 L236.169845,185.968587 L311.884834,153.571429 L387.838075,203.612328 L388.730707,203.716169 L388.125924,203.801974 L388.426492,204 L102.628906,204 Z" id="Combined-Shape" fill="#F0EFEB"></path>
  <polygon id="shard-4" fill="#B3B2AB" transform="translate(202.381985, 134.154018) scale(-1, 1) translate(-202.381985, -134.154018) " points="236.054348 123.99728 228.455375 79.9570312 168.709621 188.351004"></polygon>
  <polygon id="shard-5" fill="#C0BFBA" transform="translate(205.845533, 133.730748) scale(-1, 1) translate(-205.845533, -133.730748) " points="236.054348 80.1289062 175.636719 100.877162 176.635647 187.332589"></polygon>
  <polygon id="shard-6" fill="#D9D8D3" transform="translate(244.903477, 143.913923) scale(-1, 1) translate(-244.903477, -143.913923) " points="254.674693 100.892857 234.499337 108.057617 255.307617 186.934989"></polygon>
  <polygon id="shard-7" fill="#B3B2AB" transform="translate(273.393637, 147.277832) scale(-1, 1) translate(-273.393637, -147.277832) " points="313.007812 187.412807 233.779461 154.771484 292.066725 107.142857"></polygon>
  <polygon id="shard-10" fill="#D9D8D3" transform="translate(180.598145, 62.334612) scale(-1, 1) translate(-180.598145, -62.334612) " points="208.859375 73.7763672 172.273483 50.8928571 152.336914 59.9619141"></polygon>
  <polygon id="shard-11" fill="#C0BFBA" transform="translate(170.629625, 50.586373) scale(-1, 1) translate(-170.629625, -50.586373) " points="152.829903 51.6156878 188.429348 73.4941755 177.048849 27.6785714"></polygon>
  <polygon id="shard-12" fill="#D9D8D3" transform="translate(126.742994, 51.294015) scale(-1, 1) translate(-126.742994, -51.294015) " points="88.8691406 28.5714286 164.616848 32.8603516 100.464504 74.0166016"></polygon>
  <polygon id="shard-13" fill="#E5E3DE" transform="translate(127.396673, 19.537354) scale(-1, 1) translate(-127.396673, -19.537354) " points="90.1764977 28.641183 130.483441 6.25 164.616848 32.824707"></polygon>
  <polygon id="shard-14" fill="#D9D8D3" transform="translate(110.543616, 14.223371) scale(-1, 1) translate(-110.543616, -14.223371) " points="96.2610606 6.46777344 120.568596 0 124.826172 28.4467425"></polygon>
  <polygon id="shard-15" fill="#E5E3DE" transform="translate(122.329742, 53.974261) scale(-1, 1) translate(-122.329742, -53.974261) " points="155.298913 33.0357143 89.3605718 74.9128069 155.298913 58.2266671"></polygon>
  <polygon id="shard-16" fill="#E5E3DE" transform="translate(83.571239, 107.065569) scale(-1, 1) translate(-83.571239, -107.065569) " points="77.3886029 57.1428571 89.7538744 64.7888184 80.3397429 156.988281"></polygon>
  <polygon id="shard-17" fill="#CBCAC4" transform="translate(127.648607, 107.152483) scale(-1, 1) translate(-127.648607, -107.152483) " points="166.481605 57.1428571 168.758152 157.162109 86.5390625 124.150739"></polygon>
  <polygon id="shard-18" fill="#C0BFBA" transform="translate(132.747919, 90.903146) scale(-1, 1) translate(-132.747919, -90.903146) " points="177.007812 57.1428571 96.3150635 124.663435 88.4880265 80.5527344"></polygon>
  <polygon id="shard-19" fill="#D9D8D3" transform="translate(67.573482, 111.102818) scale(-1, 1) translate(-67.573482, -111.102818) " points="57.8362135 64.2857143 86.8496094 87.8679548 48.2973553 157.919922"></polygon>
  <polygon id="shard-20" fill="#E5E3DE" transform="translate(60.719395, 122.796875) scale(-1, 1) translate(-60.719395, -122.796875) " points="34.3255084 158.09375 72.9624766 87.5 87.1132812 128.287179"></polygon>
  <polygon id="shard-9" fill="#B3B2AB" transform="translate(193.415273, 80.524554) scale(-1, 1) translate(-193.415273, -80.524554) " points="151.811523 101.227679 235.019022 73.6943359 177.880711 59.8214286"></polygon>
  <polygon id="Combined-Shape" fill="#CBCAC4" transform="translate(51.448242, 162.053153) scale(-1, 1) translate(-51.448242, -162.053153) " points="15.8242188 157.205078 69.3151166 127.678571 87.0722656 196.427734"></polygon>
  <path d="M103.034137,204 L87.5234375,156.398438 L0.882229329,204 L103.034137,204 Z" id="Combined-Shape" fill="#F0EFEB"></path>
  <polygon id="shard-23" fill="#D9D8D3" transform="translate(127.977709, 165.122768) scale(-1, 1) translate(-127.977709, -165.122768) " points="87.1972656 123.214286 154.080418 207.03125 168.758152 156.59375"></polygon>
</svg>